<svg width="24" height="24" viewBox="0 0 24 24" fill="none" xmlns="http://www.w3.org/2000/svg">
<path d="M24 7.35484C24 7.25806 23.9883 7.15725 23.9648 7.05242C23.9414 6.94758 23.9141 6.8508 23.8828 6.76209C23.8516 6.67338 23.8086 6.58871 23.7539 6.50806C23.6992 6.42742 23.6367 6.3508 23.5664 6.27822C23.4961 6.20564 23.4219 6.14113 23.3438 6.08467C23.2656 6.02822 23.1797 5.97984 23.0859 5.93951C22.9922 5.89919 22.8984 5.86693 22.8047 5.84274C22.7109 5.81854 22.6094 5.80645 22.5 5.80645H19.9453C20.6641 5.08064 21.0234 4.20161 21.0234 3.16935C21.0234 2.68548 20.9375 2.24193 20.7656 1.83871C20.5937 1.43548 20.2852 1.08871 19.8398 0.798384C19.3945 0.508061 18.8438 0.3629 18.1875 0.3629C17.9219 0.3629 17.6523 0.391126 17.3789 0.447577C17.1055 0.504029 16.8438 0.588706 16.5938 0.701609C16.3437 0.814513 16.0977 0.939513 15.8555 1.07661C15.6133 1.21371 15.3789 1.37096 15.1523 1.54838C14.9258 1.7258 14.707 1.90725 14.4961 2.09274C14.2852 2.27822 14.082 2.47984 13.8867 2.69758C13.6914 2.91532 13.5078 3.125 13.3359 3.32661C13.1641 3.52822 12.9961 3.7379 12.832 3.95564C12.668 4.17338 12.5234 4.37096 12.3984 4.54838C12.2734 4.7258 12.1562 4.91129 12.0469 5.10484C11.7188 4.58871 11.3633 4.09274 10.9805 3.61693C10.5977 3.14113 10.1328 2.64113 9.58594 2.11693C9.03906 1.59274 8.4375 1.16935 7.78125 0.846771C7.125 0.52419 6.47656 0.3629 5.83594 0.3629C5.17969 0.3629 4.62891 0.508061 4.18359 0.798384C3.73828 1.08871 3.42969 1.43548 3.25781 1.83871C3.08594 2.24193 3 2.68548 3 3.16935C3 4.20161 3.36719 5.08871 4.10156 5.83064H1.5C1.07812 5.83064 0.722656 5.97984 0.433594 6.27822C0.144531 6.57661 0 6.94354 0 7.37903V12H1.52344V22.0887C1.52344 22.5081 1.66797 22.871 1.95703 23.1774C2.24609 23.4839 2.60156 23.6371 3.02344 23.6371H21C21.4219 23.6371 21.7773 23.4839 22.0664 23.1774C22.3555 22.871 22.5 22.5081 22.5 22.0887V12H24V7.35484ZM18.1875 1.91129C19.0781 1.91129 19.5234 2.33064 19.5234 3.16935C19.5234 3.71774 19.3437 4.19758 18.9844 4.60887C18.625 5.02016 18.1758 5.32258 17.6367 5.51613C17.0977 5.70967 16.5234 5.80645 15.9141 5.80645H13.3828C13.6797 5.35484 13.9961 4.92338 14.332 4.51209C14.668 4.1008 15.0469 3.68951 15.4688 3.27822C15.8906 2.86693 16.3398 2.53629 16.8164 2.28629C17.293 2.03629 17.75 1.91129 18.1875 1.91129ZM5.83594 1.91129C6.67969 1.91129 7.53516 2.30645 8.40234 3.09677C9.26953 3.88709 10.0391 4.79032 10.7109 5.80645H8.17969C7.22656 5.80645 6.375 5.56451 5.625 5.08064C4.875 4.59677 4.5 3.95161 4.5 3.14516C4.5 2.37096 4.89844 1.96774 5.69531 1.93548C5.74219 1.91935 5.78906 1.91129 5.83594 1.91129ZM22.5 10.4516H12.75V7.35484H22.5V10.4516ZM1.5 7.35484H11.25V10.4516H1.5V7.35484ZM3.02344 12H11.25V22.0887H3.02344V12ZM21 22.0887H12.75V12H21V22.0887Z" fill="white"/>
</svg>
